<svg version="1.0" preserveAspectRatio="xMidYMid meet" height="200" viewBox="0 0 1440 149.999998" zoomAndPan="magnify" width="1920" xmlns:xlink="http://www.w3.org/1999/xlink" xmlns="http://www.w3.org/2000/svg"><defs><filter id="c8f1044124" height="100%" width="100%" y="0%" x="0%"><feColorMatrix color-interpolation-filters="sRGB" values="0 0 0 0 1 0 0 0 0 1 0 0 0 0 1 0 0 0 1 0"></feColorMatrix></filter><g></g><clipPath id="d5c57026e2"><path clip-rule="nonzero" d="M 0 0 L 1179.585938 0 L 1179.585938 150 L 0 150 Z M 0 0"></path></clipPath><clipPath id="4824c1679e"><path clip-rule="nonzero" d="M 0 0 L 1179.585938 0 L 1179.585938 150 L 0 150 Z M 0 0"></path></clipPath><clipPath id="17f90c567e"><path clip-rule="nonzero" d="M 0 0 L 1151.835938 0 L 1151.835938 150 L 0 150 Z M 0 0"></path></clipPath><linearGradient id="bcc5337a36" y2="186.200495" gradientUnits="userSpaceOnUse" x2="542.34399" y1="-13.800708" gradientTransform="matrix(0.750142, 0, 0, 0.749995, 146.127512, 10.35047)" x1="542.34399"><stop offset="0" stop-color="rgb(16.859436%, 21.179199%, 36.859131%)" stop-opacity="1"></stop><stop offset="0.125" stop-color="rgb(16.859436%, 21.179199%, 36.859131%)" stop-opacity="1"></stop><stop offset="0.132812" stop-color="rgb(16.818237%, 21.127319%, 36.767578%)" stop-opacity="1"></stop><stop offset="0.140625" stop-color="rgb(16.691589%, 20.968628%, 36.491394%)" stop-opacity="1"></stop><stop offset="0.148438" stop-color="rgb(16.520691%, 20.755005%, 36.120605%)" stop-opacity="1"></stop><stop offset="0.15625" stop-color="rgb(16.351318%, 20.541382%, 35.748291%)" stop-opacity="1"></stop><stop offset="0.164063" stop-color="rgb(16.18042%, 20.327759%, 35.377502%)" stop-opacity="1"></stop><stop offset="0.171875" stop-color="rgb(16.011047%, 20.114136%, 35.005188%)" stop-opacity="1"></stop><stop offset="0.179688" stop-color="rgb(15.841675%, 19.900513%, 34.634399%)" stop-opacity="1"></stop><stop offset="0.1875" stop-color="rgb(15.670776%, 19.68689%, 34.262085%)" stop-opacity="1"></stop><stop offset="0.195313" stop-color="rgb(15.501404%, 19.473267%, 33.891296%)" stop-opacity="1"></stop><stop offset="0.203125" stop-color="rgb(15.330505%, 19.259644%, 33.518982%)" stop-opacity="1"></stop><stop offset="0.210938" stop-color="rgb(15.161133%, 19.046021%, 33.148193%)" stop-opacity="1"></stop><stop offset="0.21875" stop-color="rgb(14.99176%, 18.833923%, 32.775879%)" stop-opacity="1"></stop><stop offset="0.226563" stop-color="rgb(14.820862%, 18.6203%, 32.40509%)" stop-opacity="1"></stop><stop offset="0.234375" stop-color="rgb(14.651489%, 18.406677%, 32.032776%)" stop-opacity="1"></stop><stop offset="0.242188" stop-color="rgb(14.482117%, 18.193054%, 31.661987%)" stop-opacity="1"></stop><stop offset="0.25" stop-color="rgb(14.311218%, 17.979431%, 31.289673%)" stop-opacity="1"></stop><stop offset="0.257812" stop-color="rgb(14.141846%, 17.765808%, 30.918884%)" stop-opacity="1"></stop><stop offset="0.265625" stop-color="rgb(13.970947%, 17.552185%, 30.54657%)" stop-opacity="1"></stop><stop offset="0.273438" stop-color="rgb(13.801575%, 17.338562%, 30.175781%)" stop-opacity="1"></stop><stop offset="0.28125" stop-color="rgb(13.632202%, 17.124939%, 29.803467%)" stop-opacity="1"></stop><stop offset="0.289063" stop-color="rgb(13.461304%, 16.911316%, 29.432678%)" stop-opacity="1"></stop><stop offset="0.296875" stop-color="rgb(13.291931%, 16.697693%, 29.060364%)" stop-opacity="1"></stop><stop offset="0.304688" stop-color="rgb(13.121033%, 16.48407%, 28.688049%)" stop-opacity="1"></stop><stop offset="0.3125" stop-color="rgb(12.95166%, 16.270447%, 28.317261%)" stop-opacity="1"></stop><stop offset="0.320312" stop-color="rgb(12.782288%, 16.05835%, 27.944946%)" stop-opacity="1"></stop><stop offset="0.328125" stop-color="rgb(12.611389%, 15.844727%, 27.574158%)" stop-opacity="1"></stop><stop offset="0.335938" stop-color="rgb(12.442017%, 15.631104%, 27.201843%)" stop-opacity="1"></stop><stop offset="0.34375" stop-color="rgb(12.272644%, 15.41748%, 26.831055%)" stop-opacity="1"></stop><stop offset="0.351563" stop-color="rgb(12.101746%, 15.203857%, 26.45874%)" stop-opacity="1"></stop><stop offset="0.359375" stop-color="rgb(11.932373%, 14.990234%, 26.087952%)" stop-opacity="1"></stop><stop offset="0.367187" stop-color="rgb(11.761475%, 14.776611%, 25.715637%)" stop-opacity="1"></stop><stop offset="0.375" stop-color="rgb(11.592102%, 14.562988%, 25.344849%)" stop-opacity="1"></stop><stop offset="0.382812" stop-color="rgb(11.422729%, 14.349365%, 24.972534%)" stop-opacity="1"></stop><stop offset="0.390625" stop-color="rgb(11.251831%, 14.135742%, 24.601746%)" stop-opacity="1"></stop><stop offset="0.398438" stop-color="rgb(11.082458%, 13.922119%, 24.229431%)" stop-opacity="1"></stop><stop offset="0.40625" stop-color="rgb(10.91156%, 13.708496%, 23.858643%)" stop-opacity="1"></stop><stop offset="0.414062" stop-color="rgb(10.742188%, 13.494873%, 23.486328%)" stop-opacity="1"></stop><stop offset="0.421875" stop-color="rgb(10.572815%, 13.28125%, 23.11554%)" stop-opacity="1"></stop><stop offset="0.429687" stop-color="rgb(10.401917%, 13.069153%, 22.743225%)" stop-opacity="1"></stop><stop offset="0.4375" stop-color="rgb(10.232544%, 12.85553%, 22.372437%)" stop-opacity="1"></stop><stop offset="0.445312" stop-color="rgb(10.063171%, 12.641907%, 22.000122%)" stop-opacity="1"></stop><stop offset="0.453125" stop-color="rgb(9.892273%, 12.428284%, 21.629333%)" stop-opacity="1"></stop><stop offset="0.460938" stop-color="rgb(9.7229%, 12.214661%, 21.257019%)" stop-opacity="1"></stop><stop offset="0.46875" stop-color="rgb(9.552002%, 12.001038%, 20.88623%)" stop-opacity="1"></stop><stop offset="0.476562" stop-color="rgb(9.382629%, 11.787415%, 20.513916%)" stop-opacity="1"></stop><stop offset="0.484375" stop-color="rgb(9.213257%, 11.573792%, 20.143127%)" stop-opacity="1"></stop><stop offset="0.492188" stop-color="rgb(9.042358%, 11.360168%, 19.770813%)" stop-opacity="1"></stop><stop offset="0.5" stop-color="rgb(8.872986%, 11.146545%, 19.400024%)" stop-opacity="1"></stop><stop offset="0.507812" stop-color="rgb(8.702087%, 10.932922%, 19.02771%)" stop-opacity="1"></stop><stop offset="0.515625" stop-color="rgb(8.532715%, 10.719299%, 18.656921%)" stop-opacity="1"></stop><stop offset="0.523438" stop-color="rgb(8.363342%, 10.505676%, 18.284607%)" stop-opacity="1"></stop><stop offset="0.53125" stop-color="rgb(8.192444%, 10.293579%, 17.913818%)" stop-opacity="1"></stop><stop offset="0.539062" stop-color="rgb(8.023071%, 10.079956%, 17.541504%)" stop-opacity="1"></stop><stop offset="0.546875" stop-color="rgb(7.853699%, 9.866333%, 17.170715%)" stop-opacity="1"></stop><stop offset="0.554688" stop-color="rgb(7.6828%, 9.65271%, 16.798401%)" stop-opacity="1"></stop><stop offset="0.5625" stop-color="rgb(7.513428%, 9.439087%, 16.426086%)" stop-opacity="1"></stop><stop offset="0.570312" stop-color="rgb(7.342529%, 9.225464%, 16.055298%)" stop-opacity="1"></stop><stop offset="0.578125" stop-color="rgb(7.173157%, 9.011841%, 15.682983%)" stop-opacity="1"></stop><stop offset="0.585938" stop-color="rgb(7.003784%, 8.798218%, 15.312195%)" stop-opacity="1"></stop><stop offset="0.59375" stop-color="rgb(6.832886%, 8.584595%, 14.93988%)" stop-opacity="1"></stop><stop offset="0.601563" stop-color="rgb(6.663513%, 8.370972%, 14.569092%)" stop-opacity="1"></stop><stop offset="0.609375" stop-color="rgb(6.492615%, 8.157349%, 14.196777%)" stop-opacity="1"></stop><stop offset="0.617188" stop-color="rgb(6.323242%, 7.943726%, 13.825989%)" stop-opacity="1"></stop><stop offset="0.625" stop-color="rgb(6.15387%, 7.730103%, 13.453674%)" stop-opacity="1"></stop><stop offset="0.632813" stop-color="rgb(5.982971%, 7.516479%, 13.082886%)" stop-opacity="1"></stop><stop offset="0.640625" stop-color="rgb(5.813599%, 7.304382%, 12.710571%)" stop-opacity="1"></stop><stop offset="0.648438" stop-color="rgb(5.6427%, 7.090759%, 12.339783%)" stop-opacity="1"></stop><stop offset="0.65625" stop-color="rgb(5.473328%, 6.877136%, 11.967468%)" stop-opacity="1"></stop><stop offset="0.664062" stop-color="rgb(5.303955%, 6.663513%, 11.59668%)" stop-opacity="1"></stop><stop offset="0.671875" stop-color="rgb(5.133057%, 6.44989%, 11.224365%)" stop-opacity="1"></stop><stop offset="0.679688" stop-color="rgb(4.963684%, 6.236267%, 10.853577%)" stop-opacity="1"></stop><stop offset="0.6875" stop-color="rgb(4.794312%, 6.022644%, 10.481262%)" stop-opacity="1"></stop><stop offset="0.695312" stop-color="rgb(4.623413%, 5.809021%, 10.110474%)" stop-opacity="1"></stop><stop offset="0.703125" stop-color="rgb(4.454041%, 5.595398%, 9.738159%)" stop-opacity="1"></stop><stop offset="0.710938" stop-color="rgb(4.283142%, 5.381775%, 9.367371%)" stop-opacity="1"></stop><stop offset="0.71875" stop-color="rgb(4.11377%, 5.168152%, 8.995056%)" stop-opacity="1"></stop><stop offset="0.726563" stop-color="rgb(3.944397%, 4.954529%, 8.624268%)" stop-opacity="1"></stop><stop offset="0.734375" stop-color="rgb(3.773499%, 4.740906%, 8.251953%)" stop-opacity="1"></stop><stop offset="0.742188" stop-color="rgb(3.604126%, 4.528809%, 7.881165%)" stop-opacity="1"></stop><stop offset="0.75" stop-color="rgb(3.433228%, 4.315186%, 7.50885%)" stop-opacity="1"></stop><stop offset="0.757813" stop-color="rgb(3.263855%, 4.101562%, 7.138062%)" stop-opacity="1"></stop><stop offset="0.765625" stop-color="rgb(3.094482%, 3.887939%, 6.765747%)" stop-opacity="1"></stop><stop offset="0.773438" stop-color="rgb(2.923584%, 3.674316%, 6.394958%)" stop-opacity="1"></stop><stop offset="0.78125" stop-color="rgb(2.754211%, 3.460693%, 6.022644%)" stop-opacity="1"></stop><stop offset="0.789062" stop-color="rgb(2.584839%, 3.24707%, 5.651855%)" stop-opacity="1"></stop><stop offset="0.796875" stop-color="rgb(2.41394%, 3.033447%, 5.279541%)" stop-opacity="1"></stop><stop offset="0.804688" stop-color="rgb(2.244568%, 2.819824%, 4.908752%)" stop-opacity="1"></stop><stop offset="0.8125" stop-color="rgb(2.073669%, 2.606201%, 4.536438%)" stop-opacity="1"></stop><stop offset="0.820312" stop-color="rgb(1.904297%, 2.392578%, 4.164124%)" stop-opacity="1"></stop><stop offset="0.828125" stop-color="rgb(1.734924%, 2.178955%, 3.793335%)" stop-opacity="1"></stop><stop offset="0.835938" stop-color="rgb(1.564026%, 1.965332%, 3.421021%)" stop-opacity="1"></stop><stop offset="0.84375" stop-color="rgb(1.394653%, 1.751709%, 3.050232%)" stop-opacity="1"></stop><stop offset="0.851562" stop-color="rgb(1.223755%, 1.539612%, 2.677917%)" stop-opacity="1"></stop><stop offset="0.859375" stop-color="rgb(1.054382%, 1.325989%, 2.307129%)" stop-opacity="1"></stop><stop offset="0.867188" stop-color="rgb(0.88501%, 1.112366%, 1.934814%)" stop-opacity="1"></stop><stop offset="0.875" stop-color="rgb(0.714111%, 0.898743%, 1.564026%)" stop-opacity="1"></stop><stop offset="0.882812" stop-color="rgb(0.544739%, 0.68512%, 1.191711%)" stop-opacity="1"></stop><stop offset="0.890625" stop-color="rgb(0.375366%, 0.471497%, 0.820923%)" stop-opacity="1"></stop><stop offset="0.898438" stop-color="rgb(0.204468%, 0.257874%, 0.448608%)" stop-opacity="1"></stop><stop offset="0.90625" stop-color="rgb(0.0595093%, 0.0747681%, 0.131226%)" stop-opacity="1"></stop><stop offset="0.9375" stop-color="rgb(0%, 0%, 0%)" stop-opacity="1"></stop><stop offset="1" stop-color="rgb(0%, 0%, 0%)" stop-opacity="1"></stop></linearGradient><clipPath id="b699e1767f"><rect height="150" y="0" width="1180" x="0"></rect></clipPath><clipPath id="b31d7f0efb"><path clip-rule="nonzero" d="M 0 0 L 1179.585938 0 L 1179.585938 150 L 0 150 Z M 0 0"></path></clipPath><clipPath id="2709418c74"><rect height="150" y="0" width="1180" x="0"></rect></clipPath><clipPath id="19f2101fd9"><rect height="150" y="0" width="1180" x="0"></rect></clipPath><mask id="6a3875b29e"><g filter="url(#c8f1044124)"><g transform="matrix(1, 0, 0, 1, 0, -0.000000000000007527)"><g clip-path="url(#19f2101fd9)"><g clip-path="url(#b31d7f0efb)"><g transform="matrix(1, 0, 0, 1, 0, -0.000000000000007527)"><g clip-path="url(#2709418c74)"><g fill-opacity="1" fill="#000000"><g transform="translate(146.087303, 112.350071)"><g><path d="M 3.84375 -61.921875 C 3.84375 -63.390625 3.890625 -64.492188 3.984375 -65.234375 C 4.078125 -65.972656 4.378906 -66.820312 4.890625 -67.78125 C 5.785156 -69.507812 8.285156 -70.375 12.390625 -70.375 C 16.867188 -70.375 19.523438 -69.1875 20.359375 -66.8125 C 20.671875 -65.726562 20.828125 -64.066406 20.828125 -61.828125 L 20.828125 -8.453125 C 20.828125 -6.910156 20.78125 -5.785156 20.6875 -5.078125 C 20.59375 -4.378906 20.289062 -3.550781 19.78125 -2.59375 C 18.882812 -0.863281 16.382812 0 12.28125 0 C 7.800781 0 5.179688 -1.210938 4.421875 -3.640625 C 4.035156 -4.671875 3.84375 -6.304688 3.84375 -8.546875 Z M 3.84375 -61.921875"></path></g></g></g><g fill-opacity="1" fill="#000000"><g transform="translate(170.759309, 112.350071)"><g><path d="M 49.296875 -67.4375 C 49.898438 -68.5625 50.8125 -69.3125 52.03125 -69.6875 C 53.25 -70.070312 54.769531 -70.265625 56.59375 -70.265625 C 58.414062 -70.265625 59.882812 -70.101562 61 -69.78125 C 62.125 -69.46875 62.957031 -69.085938 63.5 -68.640625 C 64.039062 -68.191406 64.441406 -67.519531 64.703125 -66.625 C 65.085938 -65.601562 65.28125 -63.972656 65.28125 -61.734375 L 65.28125 -8.453125 C 65.28125 -6.910156 65.226562 -5.785156 65.125 -5.078125 C 65.03125 -4.378906 64.726562 -3.550781 64.21875 -2.59375 C 63.320312 -0.863281 60.828125 0 56.734375 0 C 54.234375 0 52.503906 -0.191406 51.546875 -0.578125 C 50.585938 -0.960938 49.789062 -1.570312 49.15625 -2.40625 C 34.75 -21.601562 25.273438 -34.144531 20.734375 -40.03125 L 20.734375 -8.453125 C 20.734375 -6.910156 20.6875 -5.785156 20.59375 -5.078125 C 20.5 -4.378906 20.195312 -3.550781 19.6875 -2.59375 C 18.789062 -0.863281 16.289062 0 12.1875 0 C 8.21875 0 5.785156 -0.863281 4.890625 -2.59375 C 4.378906 -3.550781 4.078125 -4.414062 3.984375 -5.1875 C 3.890625 -5.957031 3.84375 -7.078125 3.84375 -8.546875 L 3.84375 -62.109375 C 3.84375 -64.546875 4.144531 -66.320312 4.75 -67.4375 C 5.351562 -68.5625 6.265625 -69.3125 7.484375 -69.6875 C 8.703125 -70.070312 10.269531 -70.265625 12.1875 -70.265625 C 14.113281 -70.265625 15.632812 -70.085938 16.75 -69.734375 C 17.875 -69.390625 18.660156 -68.992188 19.109375 -68.546875 C 19.359375 -68.347656 20.09375 -67.515625 21.3125 -66.046875 C 34.8125 -47.679688 43.835938 -35.550781 48.390625 -29.65625 L 48.390625 -62.109375 C 48.390625 -64.546875 48.691406 -66.320312 49.296875 -67.4375 Z M 49.296875 -67.4375"></path></g></g></g><g fill-opacity="1" fill="#000000"><g transform="translate(239.87932, 112.350071)"><g><path d="M 50.40625 -70.375 C 51.875 -70.375 52.972656 -70.320312 53.703125 -70.21875 C 54.441406 -70.125 55.273438 -69.820312 56.203125 -69.3125 C 57.128906 -68.800781 57.785156 -67.9375 58.171875 -66.71875 C 58.554688 -65.5 58.75 -63.863281 58.75 -61.8125 C 58.75 -59.769531 58.554688 -58.140625 58.171875 -56.921875 C 57.785156 -55.710938 57.113281 -54.863281 56.15625 -54.375 C 55.195312 -53.894531 54.347656 -53.609375 53.609375 -53.515625 C 52.878906 -53.421875 51.742188 -53.375 50.203125 -53.375 L 20.828125 -53.375 L 20.828125 -43.6875 L 39.75 -43.6875 C 41.28125 -43.6875 42.410156 -43.632812 43.140625 -43.53125 C 43.878906 -43.4375 44.734375 -43.132812 45.703125 -42.625 C 47.359375 -41.664062 48.1875 -39.140625 48.1875 -35.046875 C 48.1875 -30.554688 46.972656 -27.898438 44.546875 -27.078125 C 43.523438 -26.753906 41.890625 -26.59375 39.640625 -26.59375 L 20.828125 -26.59375 L 20.828125 -8.453125 C 20.828125 -6.910156 20.78125 -5.785156 20.6875 -5.078125 C 20.59375 -4.378906 20.289062 -3.550781 19.78125 -2.59375 C 18.882812 -0.863281 16.382812 0 12.28125 0 C 7.800781 0 5.179688 -1.210938 4.421875 -3.640625 C 4.035156 -4.671875 3.84375 -6.304688 3.84375 -8.546875 L 3.84375 -61.921875 C 3.84375 -65.179688 4.445312 -67.40625 5.65625 -68.59375 C 6.875 -69.78125 9.179688 -70.375 12.578125 -70.375 Z M 50.40625 -70.375"></path></g></g></g><g fill-opacity="1" fill="#000000"><g transform="translate(301.031324, 112.350071)"><g><path d="M 36.859375 -71.234375 C 46.335938 -71.234375 54.5625 -67.804688 61.53125 -60.953125 C 68.507812 -54.109375 72 -45.613281 72 -35.46875 C 72 -25.320312 68.671875 -16.679688 62.015625 -9.546875 C 55.359375 -2.410156 47.164062 1.15625 37.4375 1.15625 C 27.707031 1.15625 19.4375 -2.363281 12.625 -9.40625 C 5.8125 -16.445312 2.40625 -24.832031 2.40625 -34.5625 C 2.40625 -39.875 3.363281 -44.847656 5.28125 -49.484375 C 7.195312 -54.128906 9.753906 -58.019531 12.953125 -61.15625 C 16.160156 -64.289062 19.84375 -66.753906 24 -68.546875 C 28.15625 -70.335938 32.441406 -71.234375 36.859375 -71.234375 Z M 19.390625 -35.03125 C 19.390625 -29.34375 21.226562 -24.722656 24.90625 -21.171875 C 28.59375 -17.617188 32.707031 -15.84375 37.25 -15.84375 C 41.789062 -15.84375 45.882812 -17.566406 49.53125 -21.015625 C 53.1875 -24.472656 55.015625 -29.113281 55.015625 -34.9375 C 55.015625 -40.769531 53.171875 -45.441406 49.484375 -48.953125 C 45.804688 -52.472656 41.695312 -54.234375 37.15625 -54.234375 C 32.613281 -54.234375 28.515625 -52.457031 24.859375 -48.90625 C 21.210938 -45.351562 19.390625 -40.726562 19.390625 -35.03125 Z M 19.390625 -35.03125"></path></g></g></g><g fill-opacity="1" fill="#000000"><g transform="translate(375.431329, 112.350071)"><g><path d="M 47.8125 -18.4375 L 49.53125 -19.6875 C 51.707031 -20.957031 53.242188 -21.59375 54.140625 -21.59375 C 56.128906 -21.59375 58.273438 -19.800781 60.578125 -16.21875 C 61.984375 -13.976562 62.6875 -12.1875 62.6875 -10.84375 C 62.6875 -9.5 62.253906 -8.378906 61.390625 -7.484375 C 60.523438 -6.585938 59.515625 -5.785156 58.359375 -5.078125 C 57.210938 -4.378906 56.109375 -3.707031 55.046875 -3.0625 C 53.992188 -2.425781 51.835938 -1.597656 48.578125 -0.578125 C 45.316406 0.441406 42.164062 0.953125 39.125 0.953125 C 36.082031 0.953125 33.007812 0.554688 29.90625 -0.234375 C 26.800781 -1.035156 23.597656 -2.378906 20.296875 -4.265625 C 17.003906 -6.160156 14.046875 -8.46875 11.421875 -11.1875 C 8.796875 -13.90625 6.632812 -17.390625 4.9375 -21.640625 C 3.25 -25.898438 2.40625 -30.523438 2.40625 -35.515625 C 2.40625 -40.515625 3.234375 -45.046875 4.890625 -49.109375 C 6.554688 -53.171875 8.6875 -56.53125 11.28125 -59.1875 C 13.875 -61.84375 16.832031 -64.066406 20.15625 -65.859375 C 26.425781 -69.316406 32.734375 -71.046875 39.078125 -71.046875 C 42.078125 -71.046875 45.128906 -70.578125 48.234375 -69.640625 C 51.335938 -68.710938 53.691406 -67.769531 55.296875 -66.8125 L 57.59375 -65.46875 C 58.75 -64.769531 59.644531 -64.195312 60.28125 -63.75 C 61.945312 -62.40625 62.78125 -60.882812 62.78125 -59.1875 C 62.78125 -57.488281 62.109375 -55.710938 60.765625 -53.859375 C 58.273438 -50.398438 56.035156 -48.671875 54.046875 -48.671875 C 52.890625 -48.671875 51.257812 -49.375 49.15625 -50.78125 C 46.46875 -52.957031 42.882812 -54.046875 38.40625 -54.046875 C 34.238281 -54.046875 30.140625 -52.609375 26.109375 -49.734375 C 24.191406 -48.316406 22.59375 -46.328125 21.3125 -43.765625 C 20.03125 -41.210938 19.390625 -38.316406 19.390625 -35.078125 C 19.390625 -31.847656 20.03125 -28.953125 21.3125 -26.390625 C 22.59375 -23.835938 24.222656 -21.828125 26.203125 -20.359375 C 30.109375 -17.535156 34.175781 -16.125 38.40625 -16.125 C 40.382812 -16.125 42.253906 -16.378906 44.015625 -16.890625 C 45.773438 -17.398438 47.039062 -17.914062 47.8125 -18.4375 Z M 47.8125 -18.4375"></path></g></g></g><g fill-opacity="1" fill="#000000"><g transform="translate(440.615339, 112.350071)"><g><path d="M 36.859375 -71.234375 C 46.335938 -71.234375 54.5625 -67.804688 61.53125 -60.953125 C 68.507812 -54.109375 72 -45.613281 72 -35.46875 C 72 -25.320312 68.671875 -16.679688 62.015625 -9.546875 C 55.359375 -2.410156 47.164062 1.15625 37.4375 1.15625 C 27.707031 1.15625 19.4375 -2.363281 12.625 -9.40625 C 5.8125 -16.445312 2.40625 -24.832031 2.40625 -34.5625 C 2.40625 -39.875 3.363281 -44.847656 5.28125 -49.484375 C 7.195312 -54.128906 9.753906 -58.019531 12.953125 -61.15625 C 16.160156 -64.289062 19.84375 -66.753906 24 -68.546875 C 28.15625 -70.335938 32.441406 -71.234375 36.859375 -71.234375 Z M 19.390625 -35.03125 C 19.390625 -29.34375 21.226562 -24.722656 24.90625 -21.171875 C 28.59375 -17.617188 32.707031 -15.84375 37.25 -15.84375 C 41.789062 -15.84375 45.882812 -17.566406 49.53125 -21.015625 C 53.1875 -24.472656 55.015625 -29.113281 55.015625 -34.9375 C 55.015625 -40.769531 53.171875 -45.441406 49.484375 -48.953125 C 45.804688 -52.472656 41.695312 -54.234375 37.15625 -54.234375 C 32.613281 -54.234375 28.515625 -52.457031 24.859375 -48.90625 C 21.210938 -45.351562 19.390625 -40.726562 19.390625 -35.03125 Z M 19.390625 -35.03125"></path></g></g></g><g fill-opacity="1" fill="#000000"><g transform="translate(515.015343, 112.350071)"><g><path d="M 78.625 -67.6875 C 79.132812 -66.71875 79.4375 -65.847656 79.53125 -65.078125 C 79.632812 -64.316406 79.6875 -63.203125 79.6875 -61.734375 L 79.6875 -8.453125 C 79.6875 -4.035156 78.46875 -1.441406 76.03125 -0.671875 C 74.8125 -0.285156 73.273438 -0.09375 71.421875 -0.09375 C 69.566406 -0.09375 68.09375 -0.253906 67 -0.578125 C 65.914062 -0.898438 65.082031 -1.285156 64.5 -1.734375 C 63.925781 -2.179688 63.484375 -2.816406 63.171875 -3.640625 C 62.847656 -4.734375 62.6875 -6.398438 62.6875 -8.640625 L 62.6875 -40.796875 C 61.082031 -38.816406 58.742188 -35.664062 55.671875 -31.34375 C 52.609375 -27.019531 50.660156 -24.3125 49.828125 -23.21875 C 48.992188 -22.132812 48.414062 -21.382812 48.09375 -20.96875 C 47.769531 -20.5625 46.984375 -19.988281 45.734375 -19.25 C 44.492188 -18.507812 43.148438 -18.140625 41.703125 -18.140625 C 40.265625 -18.140625 38.953125 -18.472656 37.765625 -19.140625 C 36.585938 -19.816406 35.742188 -20.476562 35.234375 -21.125 L 34.46875 -22.171875 C 33.1875 -23.773438 30.65625 -27.179688 26.875 -32.390625 C 23.101562 -37.609375 21.054688 -40.410156 20.734375 -40.796875 L 20.734375 -8.453125 C 20.734375 -6.972656 20.6875 -5.863281 20.59375 -5.125 C 20.5 -4.394531 20.195312 -3.582031 19.6875 -2.6875 C 18.71875 -0.957031 16.21875 -0.09375 12.1875 -0.09375 C 8.289062 -0.09375 5.859375 -0.957031 4.890625 -2.6875 C 4.378906 -3.582031 4.078125 -4.414062 3.984375 -5.1875 C 3.890625 -5.957031 3.84375 -7.109375 3.84375 -8.640625 L 3.84375 -61.921875 C 3.84375 -63.390625 3.890625 -64.492188 3.984375 -65.234375 C 4.078125 -65.972656 4.378906 -66.820312 4.890625 -67.78125 C 5.859375 -69.4375 8.359375 -70.265625 12.390625 -70.265625 C 14.109375 -70.265625 15.59375 -70.054688 16.84375 -69.640625 C 18.09375 -69.234375 18.910156 -68.804688 19.296875 -68.359375 L 19.875 -67.78125 L 41.65625 -39.171875 C 52.539062 -53.566406 59.804688 -63.070312 63.453125 -67.6875 C 64.546875 -69.40625 67.125 -70.265625 71.1875 -70.265625 C 75.25 -70.265625 77.726562 -69.40625 78.625 -67.6875 Z M 78.625 -67.6875"></path></g></g></g><g fill-opacity="1" fill="#000000"><g transform="translate(598.535351, 112.350071)"><g><path d="M 78.625 -67.6875 C 79.132812 -66.71875 79.4375 -65.847656 79.53125 -65.078125 C 79.632812 -64.316406 79.6875 -63.203125 79.6875 -61.734375 L 79.6875 -8.453125 C 79.6875 -4.035156 78.46875 -1.441406 76.03125 -0.671875 C 74.8125 -0.285156 73.273438 -0.09375 71.421875 -0.09375 C 69.566406 -0.09375 68.09375 -0.253906 67 -0.578125 C 65.914062 -0.898438 65.082031 -1.285156 64.5 -1.734375 C 63.925781 -2.179688 63.484375 -2.816406 63.171875 -3.640625 C 62.847656 -4.734375 62.6875 -6.398438 62.6875 -8.640625 L 62.6875 -40.796875 C 61.082031 -38.816406 58.742188 -35.664062 55.671875 -31.34375 C 52.609375 -27.019531 50.660156 -24.3125 49.828125 -23.21875 C 48.992188 -22.132812 48.414062 -21.382812 48.09375 -20.96875 C 47.769531 -20.5625 46.984375 -19.988281 45.734375 -19.25 C 44.492188 -18.507812 43.148438 -18.140625 41.703125 -18.140625 C 40.265625 -18.140625 38.953125 -18.472656 37.765625 -19.140625 C 36.585938 -19.816406 35.742188 -20.476562 35.234375 -21.125 L 34.46875 -22.171875 C 33.1875 -23.773438 30.65625 -27.179688 26.875 -32.390625 C 23.101562 -37.609375 21.054688 -40.410156 20.734375 -40.796875 L 20.734375 -8.453125 C 20.734375 -6.972656 20.6875 -5.863281 20.59375 -5.125 C 20.5 -4.394531 20.195312 -3.582031 19.6875 -2.6875 C 18.71875 -0.957031 16.21875 -0.09375 12.1875 -0.09375 C 8.289062 -0.09375 5.859375 -0.957031 4.890625 -2.6875 C 4.378906 -3.582031 4.078125 -4.414062 3.984375 -5.1875 C 3.890625 -5.957031 3.84375 -7.109375 3.84375 -8.640625 L 3.84375 -61.921875 C 3.84375 -63.390625 3.890625 -64.492188 3.984375 -65.234375 C 4.078125 -65.972656 4.378906 -66.820312 4.890625 -67.78125 C 5.859375 -69.4375 8.359375 -70.265625 12.390625 -70.265625 C 14.109375 -70.265625 15.59375 -70.054688 16.84375 -69.640625 C 18.09375 -69.234375 18.910156 -68.804688 19.296875 -68.359375 L 19.875 -67.78125 L 41.65625 -39.171875 C 52.539062 -53.566406 59.804688 -63.070312 63.453125 -67.6875 C 64.546875 -69.40625 67.125 -70.265625 71.1875 -70.265625 C 75.25 -70.265625 77.726562 -69.40625 78.625 -67.6875 Z M 78.625 -67.6875"></path></g></g></g><g fill-opacity="1" fill="#000000"><g transform="translate(682.05538, 112.350071)"><g></g></g></g><g fill-opacity="1" fill="#000000"><g transform="translate(706.343358, 112.350071)"><g><path d="M 47.8125 -18.4375 L 49.53125 -19.6875 C 51.707031 -20.957031 53.242188 -21.59375 54.140625 -21.59375 C 56.128906 -21.59375 58.273438 -19.800781 60.578125 -16.21875 C 61.984375 -13.976562 62.6875 -12.1875 62.6875 -10.84375 C 62.6875 -9.5 62.253906 -8.378906 61.390625 -7.484375 C 60.523438 -6.585938 59.515625 -5.785156 58.359375 -5.078125 C 57.210938 -4.378906 56.109375 -3.707031 55.046875 -3.0625 C 53.992188 -2.425781 51.835938 -1.597656 48.578125 -0.578125 C 45.316406 0.441406 42.164062 0.953125 39.125 0.953125 C 36.082031 0.953125 33.007812 0.554688 29.90625 -0.234375 C 26.800781 -1.035156 23.597656 -2.378906 20.296875 -4.265625 C 17.003906 -6.160156 14.046875 -8.46875 11.421875 -11.1875 C 8.796875 -13.90625 6.632812 -17.390625 4.9375 -21.640625 C 3.25 -25.898438 2.40625 -30.523438 2.40625 -35.515625 C 2.40625 -40.515625 3.234375 -45.046875 4.890625 -49.109375 C 6.554688 -53.171875 8.6875 -56.53125 11.28125 -59.1875 C 13.875 -61.84375 16.832031 -64.066406 20.15625 -65.859375 C 26.425781 -69.316406 32.734375 -71.046875 39.078125 -71.046875 C 42.078125 -71.046875 45.128906 -70.578125 48.234375 -69.640625 C 51.335938 -68.710938 53.691406 -67.769531 55.296875 -66.8125 L 57.59375 -65.46875 C 58.75 -64.769531 59.644531 -64.195312 60.28125 -63.75 C 61.945312 -62.40625 62.78125 -60.882812 62.78125 -59.1875 C 62.78125 -57.488281 62.109375 -55.710938 60.765625 -53.859375 C 58.273438 -50.398438 56.035156 -48.671875 54.046875 -48.671875 C 52.890625 -48.671875 51.257812 -49.375 49.15625 -50.78125 C 46.46875 -52.957031 42.882812 -54.046875 38.40625 -54.046875 C 34.238281 -54.046875 30.140625 -52.609375 26.109375 -49.734375 C 24.191406 -48.316406 22.59375 -46.328125 21.3125 -43.765625 C 20.03125 -41.210938 19.390625 -38.316406 19.390625 -35.078125 C 19.390625 -31.847656 20.03125 -28.953125 21.3125 -26.390625 C 22.59375 -23.835938 24.222656 -21.828125 26.203125 -20.359375 C 30.109375 -17.535156 34.175781 -16.125 38.40625 -16.125 C 40.382812 -16.125 42.253906 -16.378906 44.015625 -16.890625 C 45.773438 -17.398438 47.039062 -17.914062 47.8125 -18.4375 Z M 47.8125 -18.4375"></path></g></g></g><g fill-opacity="1" fill="#000000"><g transform="translate(771.52739, 112.350071)"><g><path d="M 20.828125 -14.203125 L 46.9375 -14.203125 C 49.050781 -14.203125 50.585938 -13.960938 51.546875 -13.484375 C 52.503906 -13.003906 53.144531 -12.253906 53.46875 -11.234375 C 53.789062 -10.210938 53.953125 -8.851562 53.953125 -7.15625 C 53.953125 -5.457031 53.789062 -4.09375 53.46875 -3.0625 C 53.144531 -2.039062 52.601562 -1.335938 51.84375 -0.953125 C 50.625 -0.316406 48.957031 0 46.84375 0 L 12.28125 0 C 7.800781 0 5.179688 -1.210938 4.421875 -3.640625 C 4.035156 -4.671875 3.84375 -6.304688 3.84375 -8.546875 L 3.84375 -61.921875 C 3.84375 -63.390625 3.890625 -64.492188 3.984375 -65.234375 C 4.078125 -65.972656 4.378906 -66.820312 4.890625 -67.78125 C 5.785156 -69.507812 8.285156 -70.375 12.390625 -70.375 C 16.867188 -70.375 19.523438 -69.1875 20.359375 -66.8125 C 20.671875 -65.726562 20.828125 -64.066406 20.828125 -61.828125 Z M 20.828125 -14.203125"></path></g></g></g><g fill-opacity="1" fill="#000000"><g transform="translate(827.879376, 112.350071)"><g><path d="M 49.8125 -67.765625 C 50.457031 -68.796875 51.390625 -69.503906 52.609375 -69.890625 C 53.828125 -70.273438 55.347656 -70.46875 57.171875 -70.46875 C 58.992188 -70.46875 60.445312 -70.304688 61.53125 -69.984375 C 62.625 -69.660156 63.457031 -69.273438 64.03125 -68.828125 C 64.601562 -68.378906 65.019531 -67.707031 65.28125 -66.8125 C 65.664062 -65.726562 65.859375 -64.066406 65.859375 -61.828125 L 65.859375 -32.828125 C 65.859375 -24.378906 63.234375 -16.703125 57.984375 -9.796875 C 55.421875 -6.523438 52.125 -3.878906 48.09375 -1.859375 C 44.0625 0.148438 39.597656 1.15625 34.703125 1.15625 C 29.804688 1.15625 25.359375 0.132812 21.359375 -1.90625 C 17.359375 -3.957031 14.109375 -6.648438 11.609375 -9.984375 C 6.429688 -16.765625 3.84375 -24.445312 3.84375 -33.03125 L 3.84375 -61.921875 C 3.84375 -63.453125 3.890625 -64.585938 3.984375 -65.328125 C 4.078125 -66.066406 4.378906 -66.914062 4.890625 -67.875 C 5.398438 -68.832031 6.265625 -69.503906 7.484375 -69.890625 C 8.703125 -70.273438 10.332031 -70.46875 12.375 -70.46875 C 14.425781 -70.46875 16.0625 -70.273438 17.28125 -69.890625 C 18.5 -69.503906 19.332031 -68.832031 19.78125 -67.875 C 20.539062 -66.394531 20.921875 -64.378906 20.921875 -61.828125 L 20.921875 -33.03125 C 20.921875 -29.125 21.882812 -25.410156 23.8125 -21.890625 C 24.769531 -20.097656 26.207031 -18.65625 28.125 -17.5625 C 30.050781 -16.476562 32.320312 -15.9375 34.9375 -15.9375 C 39.613281 -15.9375 43.101562 -17.660156 45.40625 -21.109375 C 47.707031 -24.566406 48.859375 -28.570312 48.859375 -33.125 L 48.859375 -62.5 C 48.859375 -64.988281 49.175781 -66.742188 49.8125 -67.765625 Z M 49.8125 -67.765625"></path></g></g></g><g fill-opacity="1" fill="#000000"><g transform="translate(897.575356, 112.350071)"><g><path d="M 53.953125 -37.734375 C 57.722656 -33.253906 59.609375 -28.226562 59.609375 -22.65625 C 59.484375 -16.257812 57.289062 -10.898438 53.03125 -6.578125 C 48.78125 -2.253906 43.613281 -0.09375 37.53125 -0.09375 L 12.28125 -0.09375 C 7.800781 -0.09375 5.179688 -1.3125 4.421875 -3.75 C 4.035156 -4.832031 3.84375 -6.492188 3.84375 -8.734375 L 3.84375 -62.015625 C 3.84375 -63.546875 3.890625 -64.664062 3.984375 -65.375 C 4.078125 -66.082031 4.378906 -66.914062 4.890625 -67.875 C 5.785156 -69.601562 8.285156 -70.46875 12.390625 -70.46875 L 36.578125 -70.46875 C 42.460938 -70.46875 47.390625 -68.414062 51.359375 -64.3125 C 55.515625 -60.15625 57.59375 -55.164062 57.59375 -49.34375 C 57.59375 -45.125 56.378906 -41.253906 53.953125 -37.734375 Z M 42.625 -23.609375 C 42.625 -25.148438 42.445312 -26.367188 42.09375 -27.265625 C 41.738281 -28.160156 41.144531 -28.800781 40.3125 -29.1875 C 39.039062 -29.695312 37.25 -29.953125 34.9375 -29.953125 C 32.632812 -29.953125 30.90625 -30.398438 29.75 -31.296875 C 28.601562 -32.191406 28.03125 -34.03125 28.03125 -36.8125 C 28.03125 -39.59375 28.617188 -41.429688 29.796875 -42.328125 C 30.984375 -43.234375 32.957031 -43.6875 35.71875 -43.6875 C 38.269531 -43.6875 39.800781 -44.359375 40.3125 -45.703125 C 40.507812 -46.398438 40.609375 -47.546875 40.609375 -49.140625 C 40.609375 -50.742188 40.078125 -51.863281 39.015625 -52.5 C 37.960938 -53.144531 36.378906 -53.46875 34.265625 -53.46875 L 20.828125 -53.46875 L 20.828125 -17.09375 L 36.578125 -17.09375 C 40.609375 -17.09375 42.625 -19.265625 42.625 -23.609375 Z M 42.625 -23.609375"></path></g></g></g></g></g></g></g></g></g></mask><clipPath id="71325a1210"><path clip-rule="nonzero" d="M 0 0 L 1151.835938 0 L 1151.835938 150 L 0 150 Z M 0 0"></path></clipPath><clipPath id="d3a0b8ac09"><rect height="150" y="0" width="1180" x="0"></rect></clipPath><clipPath id="5336e5bf0d"><rect height="150" y="0" width="1180" x="0"></rect></clipPath></defs><path fill-rule="nonzero" fill-opacity="1" d="M 60 30 C 60 30.984375 59.902344 31.960938 59.710938 32.925781 C 59.519531 33.894531 59.234375 34.832031 58.859375 35.742188 C 58.480469 36.652344 58.019531 37.515625 57.472656 38.335938 C 56.925781 39.152344 56.304688 39.910156 55.605469 40.605469 C 54.910156 41.304688 54.152344 41.925781 53.332031 42.472656 C 52.515625 43.019531 51.648438 43.480469 50.742188 43.859375 C 49.832031 44.234375 48.894531 44.519531 47.925781 44.710938 C 46.960938 44.90625 45.984375 45 45 45 C 44.015625 45 43.039062 44.90625 42.074219 44.710938 C 41.109375 44.519531 40.171875 44.234375 39.261719 43.859375 C 38.351562 43.480469 37.484375 43.019531 36.667969 42.472656 C 35.847656 41.925781 35.089844 41.304688 34.394531 40.605469 C 33.699219 39.910156 33.074219 39.152344 32.527344 38.335938 C 31.980469 37.515625 31.519531 36.652344 31.140625 35.742188 C 30.765625 34.832031 30.480469 33.894531 30.289062 32.925781 C 30.097656 31.960938 30 30.984375 30 30 C 30 29.015625 30.097656 28.039062 30.289062 27.074219 C 30.480469 26.109375 30.765625 25.171875 31.140625 24.261719 C 31.519531 23.351562 31.980469 22.488281 32.527344 21.667969 C 33.074219 20.847656 33.699219 20.089844 34.394531 19.394531 C 35.089844 18.699219 35.847656 18.078125 36.667969 17.527344 C 37.484375 16.980469 38.351562 16.519531 39.261719 16.144531 C 40.171875 15.765625 41.109375 15.480469 42.074219 15.289062 C 43.039062 15.097656 44.015625 15 45 15 C 45.984375 15 46.960938 15.097656 47.925781 15.289062 C 48.894531 15.480469 49.832031 15.765625 50.742188 16.144531 C 51.648438 16.519531 52.515625 16.980469 53.332031 17.527344 C 54.152344 18.078125 54.910156 18.699219 55.605469 19.394531 C 56.304688 20.089844 56.925781 20.847656 57.472656 21.667969 C 58.019531 22.488281 58.480469 23.351562 58.859375 24.261719 C 59.234375 25.171875 59.519531 26.109375 59.710938 27.074219 C 59.902344 28.039062 60 29.015625 60 30 Z M 60 30" fill="#142f54"></path><path fill-rule="nonzero" fill-opacity="1" d="M 30 75 C 13.433594 75 0 61.570312 0 45 C 0 28.433594 13.433594 15 30 15 Z M 30 75" fill="#ffd70a"></path><path fill-rule="nonzero" fill-opacity="1" d="M 60 75 L 30 75 L 30 45 C 46.570312 45 60 58.433594 60 75 Z M 60 75" fill="#ffd70a"></path><path fill-rule="nonzero" fill-opacity="1" d="M 30 75 C 13.433594 75 0 61.570312 0 45 L 30 45 Z M 30 75" fill="#142f54"></path><path fill-rule="nonzero" fill-opacity="1" d="M 120 90 C 120 90.984375 119.902344 91.960938 119.710938 92.925781 C 119.519531 93.890625 119.234375 94.828125 118.855469 95.738281 C 118.480469 96.648438 118.019531 97.515625 117.472656 98.332031 C 116.921875 99.152344 116.300781 99.910156 115.605469 100.605469 C 114.910156 101.300781 114.152344 101.925781 113.332031 102.472656 C 112.511719 103.019531 111.648438 103.480469 110.738281 103.859375 C 109.828125 104.234375 108.890625 104.519531 107.925781 104.710938 C 106.960938 104.902344 105.984375 105 105 105 C 104.015625 105 103.039062 104.902344 102.074219 104.710938 C 101.105469 104.519531 100.167969 104.234375 99.257812 103.859375 C 98.347656 103.480469 97.484375 103.019531 96.664062 102.472656 C 95.847656 101.925781 95.089844 101.300781 94.394531 100.605469 C 93.695312 99.910156 93.074219 99.152344 92.527344 98.332031 C 91.980469 97.515625 91.519531 96.648438 91.140625 95.738281 C 90.765625 94.828125 90.480469 93.890625 90.289062 92.925781 C 90.09375 91.960938 90 90.984375 90 90 C 90 89.015625 90.09375 88.039062 90.289062 87.074219 C 90.480469 86.105469 90.765625 85.167969 91.140625 84.257812 C 91.519531 83.347656 91.980469 82.484375 92.527344 81.667969 C 93.074219 80.847656 93.695312 80.089844 94.394531 79.394531 C 95.089844 78.695312 95.847656 78.074219 96.664062 77.527344 C 97.484375 76.980469 98.347656 76.519531 99.257812 76.140625 C 100.167969 75.765625 101.105469 75.480469 102.074219 75.289062 C 103.039062 75.097656 104.015625 75 105 75 C 105.984375 75 106.960938 75.097656 107.925781 75.289062 C 108.890625 75.480469 109.828125 75.765625 110.738281 76.140625 C 111.648438 76.519531 112.511719 76.980469 113.332031 77.527344 C 114.152344 78.074219 114.910156 78.695312 115.605469 79.394531 C 116.300781 80.089844 116.921875 80.847656 117.472656 81.667969 C 118.019531 82.484375 118.480469 83.347656 118.855469 84.257812 C 119.234375 85.167969 119.519531 86.105469 119.710938 87.074219 C 119.902344 88.039062 120 89.015625 120 90 Z M 120 90" fill="#ffd70a"></path><path fill-rule="nonzero" fill-opacity="1" d="M 90 135 L 90 105 L 120 105 C 120 121.566406 106.566406 135 90 135 Z M 90 135" fill="#142f54"></path><path fill-rule="nonzero" fill-opacity="1" d="M 60 135 L 60 105 L 90 105 C 90 121.566406 76.566406 135 60 135 Z M 60 135" fill="#142f54"></path><path fill-rule="nonzero" fill-opacity="1" d="M 67.851562 84.765625 L 67.851562 105 L 69.863281 105 L 69.863281 82.761719 C 69.164062 83.398438 68.492188 84.066406 67.851562 84.765625 Z M 67.851562 84.765625" fill="#142f54"></path><path fill-rule="nonzero" fill-opacity="1" d="M 79.933594 76.730469 L 79.933594 105.003906 L 81.945312 105.003906 L 81.945312 76.09375 C 81.265625 76.285156 80.59375 76.496094 79.933594 76.730469 Z M 79.933594 76.730469" fill="#142f54"></path><path fill-rule="nonzero" fill-opacity="1" d="M 75.90625 78.511719 L 75.90625 105.003906 L 77.917969 105.003906 L 77.917969 77.53125 C 77.234375 77.832031 76.5625 78.160156 75.90625 78.511719 Z M 75.90625 78.511719" fill="#142f54"></path><path fill-rule="nonzero" fill-opacity="1" d="M 63.824219 90.332031 L 63.824219 105.003906 L 65.839844 105.003906 L 65.839844 87.214844 C 65.101562 88.210938 64.433594 89.253906 63.824219 90.332031 Z M 63.824219 90.332031" fill="#142f54"></path><path fill-rule="nonzero" fill-opacity="1" d="M 60 105 L 61.8125 105 L 61.8125 94.710938 C 60.601562 98.03125 59.996094 101.460938 60 105 Z M 60 105" fill="#142f54"></path><path fill-rule="nonzero" fill-opacity="1" d="M 71.878906 81.09375 L 71.878906 105.003906 L 73.890625 105.003906 L 73.890625 79.6875 C 73.199219 80.128906 72.53125 80.597656 71.878906 81.09375 Z M 71.878906 81.09375" fill="#142f54"></path><path fill-rule="nonzero" fill-opacity="1" d="M 85.972656 75.269531 C 85.292969 75.359375 84.621094 75.472656 83.957031 75.609375 L 83.957031 105 L 85.972656 105 Z M 85.972656 75.269531" fill="#142f54"></path><path fill-rule="nonzero" fill-opacity="1" d="M 90 105 L 90 75 C 89.324219 75 88.652344 75.023438 87.984375 75.070312 L 87.984375 105 Z M 90 105" fill="#142f54"></path><path fill-rule="nonzero" fill-opacity="1" d="M 30 120 C 30 120.984375 29.90625 121.960938 29.710938 122.925781 C 29.519531 123.890625 29.234375 124.828125 28.859375 125.738281 C 28.480469 126.648438 28.019531 127.511719 27.472656 128.332031 C 26.925781 129.152344 26.304688 129.910156 25.605469 130.605469 C 24.910156 131.300781 24.152344 131.921875 23.335938 132.472656 C 22.515625 133.019531 21.652344 133.480469 20.742188 133.855469 C 19.832031 134.234375 18.894531 134.519531 17.925781 134.710938 C 16.960938 134.902344 15.984375 135 15 135 C 14.015625 135 13.039062 134.902344 12.074219 134.710938 C 11.109375 134.519531 10.171875 134.234375 9.261719 133.855469 C 8.351562 133.480469 7.488281 133.019531 6.667969 132.472656 C 5.847656 131.921875 5.089844 131.300781 4.394531 130.605469 C 3.699219 129.910156 3.078125 129.152344 2.527344 128.332031 C 1.980469 127.511719 1.519531 126.648438 1.144531 125.738281 C 0.765625 124.828125 0.480469 123.890625 0.289062 122.925781 C 0.0976562 121.960938 0 120.984375 0 120 C 0 119.015625 0.0976562 118.039062 0.289062 117.074219 C 0.480469 116.105469 0.765625 115.167969 1.144531 114.257812 C 1.519531 113.347656 1.980469 112.484375 2.527344 111.664062 C 3.078125 110.847656 3.699219 110.089844 4.394531 109.394531 C 5.089844 108.695312 5.847656 108.074219 6.667969 107.527344 C 7.488281 106.980469 8.351562 106.519531 9.261719 106.140625 C 10.171875 105.765625 11.109375 105.480469 12.074219 105.289062 C 13.039062 105.09375 14.015625 105 15 105 C 15.984375 105 16.960938 105.09375 17.925781 105.289062 C 18.894531 105.480469 19.832031 105.765625 20.742188 106.140625 C 21.652344 106.519531 22.515625 106.980469 23.335938 107.527344 C 24.152344 108.074219 24.910156 108.695312 25.605469 109.394531 C 26.304688 110.089844 26.925781 110.847656 27.472656 111.664062 C 28.019531 112.484375 28.480469 113.347656 28.859375 114.257812 C 29.234375 115.167969 29.519531 116.105469 29.710938 117.074219 C 29.90625 118.039062 30 119.015625 30 120 Z M 30 120" fill="#008533"></path><path fill-rule="nonzero" fill-opacity="1" d="M 0 75 L 30 75 L 30 105 C 13.433594 105 0 91.566406 0 75 Z M 0 75" fill="#142f54"></path><path fill-rule="nonzero" fill-opacity="1" d="M 30 75 L 60 75 L 60 105 C 43.433594 105 30 91.566406 30 75 Z M 30 75" fill="#008533"></path><path fill-rule="nonzero" fill-opacity="1" d="M 30 105 L 60 105 L 60 135 C 43.433594 135 30 121.566406 30 105 Z M 30 105" fill="#ffd70a"></path><g clip-path="url(#d5c57026e2)"><g transform="matrix(1, 0, 0, 1, 0, -0.000000000000007527)"><g clip-path="url(#5336e5bf0d)"><g clip-path="url(#4824c1679e)"><g mask="url(#6a3875b29e)"><g transform="matrix(1, 0, 0, 1, 0, -0.000000000000007527)"><g clip-path="url(#d3a0b8ac09)"><g clip-path="url(#71325a1210)"><path fill-rule="nonzero" d="M 0 0 L 0 150 L 1151.835938 150 L 1151.835938 0 Z M 0 0" fill="url(#bcc5337a36)"></path></g></g></g></g></g></g></g></g></svg>